{
  "accessors": [
    {
      "bufferView": 2,
      "componentType": 5126,
      "count": 6720,
      "max": [
        0.65569627285003662,
        10.583869934082031,
        0.61086392402648926
      ],
      "min": [
        -0.55755364894866943,
        10.255393028259277,
        -0.60855865478515625
      ],
      "type": "VEC3"
    },
    {
      "bufferView": 2,
      "byteOffset": 80640,
      "componentType": 5126,
      "count": 6720,
      "max": [
        0.99991822242736816,
        1,
        0.99975889921188354
      ],
      "min": [
        -0.99983757734298706,
        -1,
        -0.99987763166427612
      ],
      "type": "VEC3"
    },
    {
      "bufferView": 3,
      "componentType": 5126,
      "count": 6720,
      "max": [
        0.99999797344207764,
        0.99988597631454468,
        0.99576377868652344,
        1
      ],
      "min": [
        -0.88642728328704834,
        -0.99996232986450195,
        -0.95571607351303101,
        1
      ],
      "type": "VEC4"
    },
    {
      "bufferView": 1,
      "componentType": 5126,
      "count": 6720,
      "max": [
        0.95085102319717407,
        0.99127018451690674
      ],
      "min": [
        0.010617483407258987,
        0.18278439342975616
      ],
      "type": "VEC2"
    },
    {
      "bufferView": 0,
      "componentType": 5125,
      "count": 38592,
      "max": [
        6719
      ],
      "min": [
        0
      ],
      "type": "SCALAR"
    },
    {
      "bufferView": 2,
      "byteOffset": 161280,
      "componentType": 5126,
      "count": 9268,
      "max": [
        1.4842495918273926,
        10.499832153320312,
        1.5674835443496704
      ],
      "min": [
        -1.4563848972320557,
        0.0048088133335113525,
        -1.5662457942962646
      ],
      "type": "VEC3"
    },
    {
      "bufferView": 2,
      "byteOffset": 272496,
      "componentType": 5126,
      "count": 9268,
      "max": [
        0.99998992681503296,
        1,
        0.99998772144317627
      ],
      "min": [
        -0.99998980760574341,
        -1,
        -0.99998760223388672
      ],
      "type": "VEC3"
    },
    {
      "bufferView": 1,
      "byteOffset": 53760,
      "componentType": 5126,
      "count": 9268,
      "max": [
        0.97683143615722656,
        0.97842502593994141
      ],
      "min": [
        0.021539837121963501,
        0.021574974060058594
      ],
      "type": "VEC2"
    },
    {
      "bufferView": 0,
      "byteOffset": 154368,
      "componentType": 5125,
      "count": 52800,
      "max": [
        9267
      ],
      "min": [
        0
      ],
      "type": "SCALAR"
    },
    {
      "bufferView": 2,
      "byteOffset": 383712,
      "componentType": 5126,
      "count": 2460,
      "max": [
        1.4452033042907715,
        9.2125120162963867,
        1.5278480052947998
      ],
      "min": [
        -1.417516827583313,
        0.069199204444885254,
        -1.5266447067260742
      ],
      "type": "VEC3"
    },
    {
      "bufferView": 2,
      "byteOffset": 413232,
      "componentType": 5126,
      "count": 2460,
      "max": [
        0.99997752904891968,
        0.2819027304649353,
        0.99998360872268677
      ],
      "min": [
        -0.99982148408889771,
        -1,
        -0.99997961521148682
      ],
      "type": "VEC3"
    },
    {
      "bufferView": 3,
      "byteOffset": 107520,
      "componentType": 5126,
      "count": 2460,
      "max": [
        0.99973863363265991,
        0.53812301158905029,
        0.99999862909317017,
        1
      ],
      "min": [
        -0.99998211860656738,
        -0.58262592554092407,
        -0.99999791383743286,
        1
      ],
      "type": "VEC4"
    },
    {
      "bufferView": 1,
      "byteOffset": 127904,
      "componentType": 5126,
      "count": 2460,
      "max": [
        0.88695758581161499,
        0.76937627792358398
      ],
      "min": [
        0.020317405462265015,
        0.00633973628282547
      ],
      "type": "VEC2"
    },
    {
      "bufferView": 0,
      "byteOffset": 365568,
      "componentType": 5125,
      "count": 14040,
      "max": [
        2459
      ],
      "min": [
        0
      ],
      "type": "SCALAR"
    }
  ],
  "asset": {
    "extras": {
      "author": "akashsingh2508 (https://sketchfab.com/akashsingh2508)",
      "license": "CC-BY-4.0 (http://creativecommons.org/licenses/by/4.0/)",
      "source": "https://sketchfab.com/3d-models/pepsi-bottle-2b807dda52eb4235a0625f79c9851c15",
      "title": "Pepsi_Bottle"
    },
    "generator": "Sketchfab-7.68.0",
    "version": "2.0"
  },
  "bufferViews": [
    {
      "buffer": 0,
      "byteLength": 421728,
      "byteOffset": 0,
      "name": "floatBufferViews",
      "target": 34963
    },
    {
      "buffer": 0,
      "byteLength": 147584,
      "byteOffset": 421728,
      "byteStride": 8,
      "name": "floatBufferViews",
      "target": 34962
    },
    {
      "buffer": 0,
      "byteLength": 442752,
      "byteOffset": 569312,
      "byteStride": 12,
      "name": "floatBufferViews",
      "target": 34962
    },
    {
      "buffer": 0,
      "byteLength": 146880,
      "byteOffset": 1012064,
      "byteStride": 16,
      "name": "floatBufferViews",
      "target": 34962
    }
  ],
  "buffers": [
    {
      "byteLength": 1158944,
      "uri": "scene.bin"
    }
  ],
  "images": [
    {
      "uri": "textures/phong4_baseColor.png"
    },
    {
      "uri": "textures/phong4_metallicRoughness.png"
    },
    {
      "uri": "textures/phong4_normal.png"
    },
    {
      "uri": "textures/Bottle_Mat_baseColor.png"
    }
  ],
  "materials": [
    {
      "alphaMode": "BLEND",
      "doubleSided": true,
      "emissiveFactor": [
        0,
        0,
        0
      ],
      "name": "phong4",
      "normalTexture": {
        "index": 2,
        "scale": 1,
        "texCoord": 0
      },
      "pbrMetallicRoughness": {
        "baseColorFactor": [
          1,
          1,
          1,
          1
        ],
        "baseColorTexture": {
          "index": 0,
          "texCoord": 0
        },
        "metallicFactor": 0.17136364561138731,
        "metallicRoughnessTexture": {
          "index": 1,
          "texCoord": 0
        },
        "roughnessFactor": 0
      }
    },
    {
      "alphaMode": "BLEND",
      "doubleSided": true,
      "emissiveFactor": [
        0,
        0,
        0
      ],
      "name": "Bottle_Mat",
      "pbrMetallicRoughness": {
        "baseColorFactor": [
          1,
          1,
          1,
          1
        ],
        "baseColorTexture": {
          "index": 3,
          "texCoord": 0
        },
        "metallicFactor": 0.8622727365204782,
        "roughnessFactor": 0
      }
    }
  ],
  "meshes": [
    {
      "name": "polySurface4_phong4_0",
      "primitives": [
        {
          "attributes": {
            "NORMAL": 1,
            "POSITION": 0,
            "TANGENT": 2,
            "TEXCOORD_0": 3
          },
          "indices": 4,
          "material": 0,
          "mode": 4
        }
      ]
    },
    {
      "name": "polySurface5_Bottle_Mat_0",
      "primitives": [
        {
          "attributes": {
            "NORMAL": 6,
            "POSITION": 5,
            "TEXCOORD_0": 7
          },
          "indices": 8,
          "material": 1,
          "mode": 4
        }
      ]
    },
    {
      "name": "polySurface6_phong4_0",
      "primitives": [
        {
          "attributes": {
            "NORMAL": 10,
            "POSITION": 9,
            "TANGENT": 11,
            "TEXCOORD_0": 12
          },
          "indices": 13,
          "material": 0,
          "mode": 4
        }
      ]
    }
  ],
  "nodes": [
    {
      "children": [
        1
      ],
      "name": "RootNode (gltf orientation matrix)",
      "rotation": [
        -0.70710678118654746,
        -0,
        -0,
        0.70710678118654757
      ]
    },
    {
      "children": [
        2
      ],
      "name": "RootNode (model correction matrix)"
    },
    {
      "children": [
        3
      ],
      "matrix": [
        1,
        0,
        0,
        0,
        0,
        0,
        1,
        0,
        0,
        -1,
        0,
        0,
        0,
        0,
        0,
        1
      ],
      "name": "38e40ba7576b4c0eb3c8a285cf463b11.fbx"
    },
    {
      "children": [
        4
      ],
      "name": "RootNode"
    },
    {
      "children": [
        5,
        7,
        9
      ],
      "name": "polySurface3"
    },
    {
      "children": [
        6
      ],
      "name": "polySurface4"
    },
    {
      "mesh": 0,
      "name": "polySurface4_phong4_0"
    },
    {
      "children": [
        8
      ],
      "name": "polySurface5"
    },
    {
      "mesh": 1,
      "name": "polySurface5_Bottle_Mat_0"
    },
    {
      "children": [
        10
      ],
      "name": "polySurface6"
    },
    {
      "mesh": 2,
      "name": "polySurface6_phong4_0"
    }
  ],
  "samplers": [
    {
      "magFilter": 9729,
      "minFilter": 9987,
      "wrapS": 10497,
      "wrapT": 10497
    }
  ],
  "scene": 0,
  "scenes": [
    {
      "name": "OSG_Scene",
      "nodes": [
        0
      ]
    }
  ],
  "textures": [
    {
      "sampler": 0,
      "source": 0
    },
    {
      "sampler": 0,
      "source": 1
    },
    {
      "sampler": 0,
      "source": 2
    },
    {
      "sampler": 0,
      "source": 3
    }
  ]
}

