{
  "accessors": [
    {
      "bufferView": 2,
      "componentType": 5126,
      "count": 3871,
      "max": [15.167269706726074, 1.3341150283813477, 60.49310302734375],
      "min": [-15.167271614074707, -1.0378220081329346, 0.49310100078582764],
      "type": "VEC3"
    },
    {
      "bufferView": 2,
      "byteOffset": 46452,
      "componentType": 5126,
      "count": 3871,
      "max": [1, 1, 1],
      "min": [-0.9992033839225769, -0.99961036443710327, -1],
      "type": "VEC3"
    },
    {
      "bufferView": 3,
      "componentType": 5126,
      "count": 3871,
      "max": [0.99999761581420898, 0.99999970197677612, 0.99999988079071045, 1],
      "min": [-1, -0.99999964237213135, -1, -1],
      "type": "VEC4"
    },
    {
      "bufferView": 1,
      "componentType": 5126,
      "count": 3871,
      "max": [1, 0.99140399694442749],
      "min": [0, 0],
      "type": "VEC2"
    },
    {
      "bufferView": 0,
      "componentType": 5125,
      "count": 15960,
      "max": [3870],
      "min": [0],
      "type": "SCALAR"
    },
    {
      "bufferView": 2,
      "byteOffset": 92904,
      "componentType": 5126,
      "count": 3266,
      "max": [15.167269706726074, 1.3341150283813477, 59.693107604980469],
      "min": [-15.167272567749023, -1.33411705493927, 0.49310100078582764],
      "type": "VEC3"
    },
    {
      "bufferView": 2,
      "byteOffset": 132096,
      "componentType": 5126,
      "count": 3266,
      "max": [1, 1, 1],
      "min": [-1, -1, -1],
      "type": "VEC3"
    },
    {
      "bufferView": 3,
      "byteOffset": 61936,
      "componentType": 5126,
      "count": 3266,
      "max": [1, 0.99659937620162964, 1, 1],
      "min": [-1, -0.99712008237838745, -1, 1],
      "type": "VEC4"
    },
    {
      "bufferView": 1,
      "byteOffset": 30968,
      "componentType": 5126,
      "count": 3266,
      "max": [0.99994802474975586, 0.99251097440719604],
      "min": [0, 0],
      "type": "VEC2"
    },
    {
      "bufferView": 0,
      "byteOffset": 63840,
      "componentType": 5125,
      "count": 13500,
      "max": [3265],
      "min": [0],
      "type": "SCALAR"
    }
  ],
  "asset": {
    "extras": {
      "author": "K Wang (https://sketchfab.com/15716533192)",
      "license": "CC-BY-4.0 (http://creativecommons.org/licenses/by/4.0/)",
      "source": "https://sketchfab.com/models/ef63b1bf46394bc09389367e82af0742",
      "title": "Shouji"
    },
    "generator": "Sketchfab-3.20.4",
    "version": "2.0"
  },
  "bufferViews": [
    {
      "buffer": 0,
      "byteLength": 117840,
      "byteOffset": 0,
      "name": "floatBufferViews",
      "target": 34963
    },
    {
      "buffer": 0,
      "byteLength": 57096,
      "byteOffset": 117840,
      "byteStride": 8,
      "name": "floatBufferViews",
      "target": 34962
    },
    {
      "buffer": 0,
      "byteLength": 171288,
      "byteOffset": 174936,
      "byteStride": 12,
      "name": "floatBufferViews",
      "target": 34962
    },
    {
      "buffer": 0,
      "byteLength": 114192,
      "byteOffset": 346224,
      "byteStride": 16,
      "name": "floatBufferViews",
      "target": 34962
    }
  ],
  "buffers": [
    {
      "byteLength": 460416,
      "uri": "iphone.bin"
    }
  ],
  "extensionsRequired": ["KHR_materials_pbrSpecularGlossiness"],
  "extensionsUsed": ["KHR_materials_pbrSpecularGlossiness"],
  "images": [
    {
      "uri": "textures/material_0_emissive.png"
    },
    {
      "uri": "textures/material_0_diffuse.png"
    },
    {
      "uri": "textures/material_0_specularGlossiness.png"
    },
    {
      "uri": "textures/material_0_normal.png"
    }
  ],
  "materials": [
    {
      "doubleSided": true,
      "emissiveFactor": [
        0.96121638080000005, 0.96121638080000005, 0.96121638080000005
      ],
      "emissiveTexture": {
        "index": 0,
        "texCoord": 0
      },
      "extensions": {
        "KHR_materials_pbrSpecularGlossiness": {
          "diffuseFactor": [1, 1, 1, 1],
          "diffuseTexture": {
            "index": 1,
            "texCoord": 0
          },
          "glossinessFactor": 1,
          "specularFactor": [1, 1, 1],
          "specularGlossinessTexture": {
            "index": 2,
            "texCoord": 0
          }
        }
      },
      "name": "material_0",
      "normalTexture": {
        "index": 3,
        "scale": 1,
        "texCoord": 0
      }
    }
  ],
  "meshes": [
    {
      "primitives": [
        {
          "attributes": {
            "NORMAL": 1,
            "POSITION": 0,
            "TANGENT": 2,
            "TEXCOORD_0": 3
          },
          "indices": 4,
          "material": 0,
          "mode": 4
        }
      ]
    },
    {
      "primitives": [
        {
          "attributes": {
            "NORMAL": 6,
            "POSITION": 5,
            "TANGENT": 7,
            "TEXCOORD_0": 8
          },
          "indices": 9,
          "material": 0,
          "mode": 4
        }
      ]
    }
  ],
  "nodes": [
    {
      "children": [1],
      "name": "RootNode (gltf orientation matrix)",
      "rotation": [-0.70710678118654746, -0, -0, 0.70710678118654757]
    },
    {
      "children": [2],
      "name": "RootNode (model correction matrix)"
    },
    {
      "children": [3, 4],
      "name": "shouji1.obj.cleaner.materialmerger.gles"
    },
    {
      "mesh": 0,
      "name": ""
    },
    {
      "mesh": 1,
      "name": ""
    }
  ],
  "samplers": [
    {
      "magFilter": 9729,
      "minFilter": 9987,
      "wrapS": 10497,
      "wrapT": 10497
    }
  ],
  "scene": 0,
  "scenes": [
    {
      "name": "OSG_Scene",
      "nodes": [0]
    }
  ],
  "textures": [
    {
      "sampler": 0,
      "source": 0
    },
    {
      "sampler": 0,
      "source": 1
    },
    {
      "sampler": 0,
      "source": 2
    },
    {
      "sampler": 0,
      "source": 3
    }
  ]
}
